<?xml version="1.0" standalone="no"?><!DOCTYPE svg PUBLIC "-//W3C//DTD SVG 1.1//EN" "http://www.w3.org/Graphics/SVG/1.1/DTD/svg11.dtd"><svg t="1710581160607" class="icon" viewBox="0 0 1024 1024" version="1.1" xmlns="http://www.w3.org/2000/svg" p-id="17254" xmlns:xlink="http://www.w3.org/1999/xlink" width="200" height="200"><path d="M489.37984 206.09536L423.1424 75.48928c-2.72896-10.74688-12.02176-18.8672-23.61856-18.8672H184.64768a24.82688 24.82688 0 0 0-24.82176 24.82176c0 5.40672 2.08896 10.14272 5.02272 14.21824L263.7824 295.30624C347.55584 214.6304 489.37984 206.09536 489.37984 206.09536zM857.69728 95.66208c2.93376-4.07552 5.02272-8.81152 5.02272-14.21824a24.82688 24.82688 0 0 0-24.82688-24.82176h-214.87616c-11.5968 0-20.89472 8.12032-23.61856 18.8672l-66.23744 130.60608s141.82912 8.53504 225.60768 89.21088l98.92864-199.64416z" fill="#FF2013" p-id="17255"></path><path d="M513.024 256.96256c-191.93344 0-347.52512 155.59168-347.52512 347.52512 0 191.93344 155.5968 347.52512 347.52512 347.52512 191.93344 0 347.52512-155.5968 347.52512-347.52512 0-191.93344-155.5968-347.52512-347.52512-347.52512z m178.69312 316.52864l-68.52096 66.7904 16.17408 94.3104c5.43232 31.66208-12.65152 45.50656-41.6512 30.26432l-84.69504-44.52864-84.69504 44.52864c-28.43136 14.94528-47.19104 2.02752-41.6512-30.26432l16.17408-94.3104-68.52096-66.7904c-23.00416-22.42048-16.50688-44.25216 15.90784-48.96256l94.6944-13.76256L487.28064 424.96c14.21824-28.80512 36.98688-29.37344 51.4816 0l42.34752 85.8112 94.6944 13.76256c31.79008 4.61312 39.3728 26.09152 15.91296 48.95744z" fill="#FFBD0A" p-id="17256"></path><path d="M350.22336 524.51328l94.72-13.7216 42.3424-85.8112c7.168-14.4896 16.4352-21.8112 25.7536-21.8112v-146.2272c-191.9488 0-347.5456 155.5968-347.5456 347.5456s155.5968 347.5456 347.5456 347.5456v-231.68l-84.736 44.4928c-28.416 14.9504-47.1552 2.048-41.6256-30.2592l16.1792-94.3104-68.5056-66.7648c-23.04-22.4256-16.5376-44.288 15.872-48.9984z" fill="#FF991F" p-id="17257"></path></svg>