<svg xmlns="http://www.w3.org/2000/svg" xmlns:xlink="http://www.w3.org/1999/xlink" fill="none" version="1.1" width="200" height="60" viewBox="0 0 200 60"><defs><clipPath id="master_svg0_1_0"><rect x="0" y="0" width="200" height="60" rx="0"/></clipPath></defs><g clip-path="url(#master_svg0_1_0)"><g><path d="M34.604,45.08L33.668,35.756L27.58401,35.756L24.34401,45.08L20.492007,45.08L31.328,15.992L35.144,15.992L38.384,45.08L34.604,45.08ZM30.32,27.8L28.73601,32.336L33.308,32.336L32.876,28.16Q32.768,27.224,32.66,25.982Q32.552,24.740000000000002,32.462,23.497999999999998Q32.372,22.256,32.408,21.32Q32.156,22.256,31.778,23.48Q31.4,24.704,31.003999999999998,25.856Q30.608,27.008,30.32,27.8ZM44,45.08L40.4,45.08L44.468,15.992L50.120000000000005,15.992Q54.512,15.992,56.564,18.206Q58.616,20.42,58.076,24.524Q57.752,27.044,56.384,28.826Q55.016,30.608,52.838,31.562Q50.66,32.516,47.924,32.552L45.763999999999996,32.552L44,45.08ZM49.976,19.375999999999998L47.6,19.375999999999998L46.232,29.168L47.924,29.132Q50.912,29.06,52.406,27.782Q53.9,26.504,54.224,24.055999999999997Q54.512,21.788,53.414,20.582Q52.316,19.375999999999998,49.976,19.375999999999998ZM61.532,45.08L57.932,45.08L62,15.992L67.652,15.992Q72.044,15.992,74.096,18.206Q76.148,20.42,75.608,24.524Q75.28399999999999,27.044,73.916,28.826Q72.548,30.608,70.37,31.562Q68.19200000000001,32.516,65.456,32.552L63.296,32.552L61.532,45.08ZM67.50800000000001,19.375999999999998L65.132,19.375999999999998L63.764,29.168L65.456,29.132Q68.444,29.06,69.938,27.782Q71.432,26.504,71.756,24.055999999999997Q72.044,21.788,70.946,20.582Q69.848,19.375999999999998,67.50800000000001,19.375999999999998ZM101.168,15.992L90.692,45.08L87.272,45.08L84.392,15.992L88.172,15.992L89.324,33.668Q89.396,34.82,89.54,36.367999999999995Q89.684,37.916,89.756,39.284Q90.188,37.952,90.638,36.494Q91.088,35.036,91.412,34.064L97.316,15.992L101.168,15.992ZM105.056,25.64L102.644,45.08L99.044,45.08L103.616,15.992L107.72,15.992L110.42,34.135999999999996L118.52,15.992L122.84,15.992L118.664,45.08L115.064,45.08L118.412,25.676Q118.52,25.064,118.718,23.894Q118.916,22.724,119.096,21.716Q118.664,22.688000000000002,118.088,23.875999999999998Q117.512,25.064,117.224,25.676L110.996,38.995999999999995L108.368,38.995999999999995L106.208,25.64Q106.136,25.208,105.992,24.451999999999998Q105.848,23.695999999999998,105.722,22.886Q105.596,22.076,105.488,21.428Q105.416,22.292,105.308,23.48Q105.2,24.668,105.056,25.64ZM134.828,45.08L133.892,35.756L127.808,35.756L124.568,45.08L120.716,45.08L131.55200000000002,15.992L135.368,15.992L138.608,45.08L134.828,45.08ZM130.54399999999998,27.8L128.95999999999998,32.336L133.53199999999998,32.336L133.1,28.16Q132.99200000000002,27.224,132.88400000000001,25.982Q132.776,24.740000000000002,132.686,23.497999999999998Q132.596,22.256,132.632,21.32Q132.38,22.256,132.002,23.48Q131.624,24.704,131.228,25.856Q130.832,27.008,130.54399999999998,27.8ZM150.488,45.08L147.93200000000002,33.739999999999995L142.748,45.08L138.788,45.08L146.276,30.068L142.712,15.992L146.49200000000002,15.992L148.796,26.396L153.476,15.992L157.436,15.992L150.416,30.104L154.268,45.08L150.488,45.08Z" fill="#3D3D3D" fill-opacity="1"/></g></g></svg>