<?xml version="1.0" standalone="no"?><!DOCTYPE svg PUBLIC "-//W3C//DTD SVG 1.1//EN" "http://www.w3.org/Graphics/SVG/1.1/DTD/svg11.dtd"><svg t="1609591155360" class="icon" viewBox="0 0 1210 1024" version="1.1" xmlns="http://www.w3.org/2000/svg" p-id="5560" width="236.328125" height="200" xmlns:xlink="http://www.w3.org/1999/xlink"><defs><style type="text/css"></style></defs><path d="M384.99297 118.628848l15.42206 14.24291 40.060122 38.477575c2.234182 2.110061 4.251152 3.971879 6.20606 5.740606l6.11297 5.461334c1.861818 1.582545 3.506424 2.978909 4.964848 4.12703l2.110061 1.582545c1.024 0.775758 1.737697 1.179152 0.434424 1.396364L465.454545 188.850424c6.206061-1.179152 17.004606-3.599515 37.143273-8.192 17.066667-3.723636 31.340606-6.423273 45.273212-8.378182 9.340121-1.303273 18.152727-2.172121 26.468849-2.606545 8.440242-0.465455 17.37697-0.496485 26.996363-0.155152 11.077818 0.372364 22.434909 1.241212 35.467637 2.513455l10.084848 1.05503 28.982303 3.320243 10.519273 0.930909 6.206061 0.186182c-2.544485 0.124121-2.730667-0.062061-2.172122-0.682667l0.589576-0.589576a121.328485 121.328485 0 0 0 8.502303-9.929697l2.668606-3.475394c2.482424-3.227152 5.12-6.826667 8.16097-11.077818l29.789091-42.356364 9.526303-13.187878c25.6-34.940121 40.370424-49.648485 56.599273-50.486303 39.563636-2.07903 96.876606 147.735273 101.40703 233.782303a15.515152 15.515152 0 0 1-30.999273 1.613575c-3.599515-68.701091-55.792485-205.110303-68.794182-204.427636-2.854788 0.155152-17.997576 16.911515-38.539636 45.242182l-33.854061 48.034909c-3.196121 4.406303-5.988848 8.22303-8.595394 11.667394-14.273939 18.742303-21.721212 26.282667-32.705939 26.872242h-5.523394a224.162909 224.162909 0 0 1-16.073697-1.241212l-29.075394-3.351272-18.711272-1.861819a468.247273 468.247273 0 0 0-24.54497-1.551515 280.296727 280.296727 0 0 0-24.265697 0.124121 279.831273 279.831273 0 0 0-23.862303 2.389334c-12.970667 1.799758-26.530909 4.344242-42.883879 7.943757l-29.230545 6.578425c-9.619394 2.048-15.297939 2.978909-19.42497 3.196121-9.153939 0.496485-16.384-4.189091-30.72-17.066667l-14.211879-13.156848-32.985212-31.775031-6.826667-6.423272c-27.182545-25.413818-46.855758-39.687758-52.161939-39.408485-7.168 0.372364-25.196606 70.438788-38.818909 193.691151a15.515152 15.515152 0 0 1-30.844121-3.413333l2.482424-22.062546c16.011636-135.819636 33.512727-197.507879 65.536-199.214545 16.042667-0.806788 34.412606 11.046788 62.991515 36.708848zM216.808727 330.317576a15.515152 15.515152 0 1 1 23.955394 19.704242c-105.50303 128.217212-143.980606 259.909818-116.301576 396.22594 26.872242 132.499394 141.125818 196.297697 348.594425 190.836363a15.515152 15.515152 0 0 1 0.806788 31.030303c-220.935758 5.802667-349.432242-65.939394-379.81091-215.691636-29.602909-145.966545 11.605333-287.030303 122.755879-422.105212zM956.850424 291.529697a15.515152 15.515152 0 1 0-21.783272 22.124606c118.318545 116.456727 170.356364 243.432727 157.106424 381.889939-12.877576 134.578424-119.870061 209.95103-326.749091 226.21091a15.515152 15.515152 0 0 0 2.451394 30.937212c220.315152-17.314909 340.619636-102.089697 355.172848-254.200243 14.211879-148.262788-41.518545-284.237576-166.198303-406.962424z" fill="#333333" p-id="5561"></path><path d="M53.744485 655.36l2.792727 0.279273 125.579636 24.513939a15.515152 15.515152 0 0 1-3.16509 30.72l-2.792728-0.310303-125.579636-24.451879a15.515152 15.515152 0 0 1 3.165091-30.75103z" fill="#333333" p-id="5562"></path><path d="M1167.32897 596.992l-2.761697 0.589576-122.321455 37.484606a15.515152 15.515152 0 0 0 6.361212 30.223515l2.730667-0.558545 122.321455-37.484607a15.515152 15.515152 0 0 0-6.330182-30.254545zM827.919515 624.081455c-16.259879 0.837818-30.099394 11.636364-42.108121 30.440727a15.515152 15.515152 0 0 0 26.158545 16.694303c7.13697-11.170909 13.218909-15.918545 17.594182-16.135758 4.344242-0.248242 10.860606 3.816727 19.176727 14.211879a15.515152 15.515152 0 0 0 24.265697-19.331879c-13.901576-17.43903-28.796121-26.748121-45.08703-25.879272zM1050.375758 680.897939a15.515152 15.515152 0 0 0-5.02691 30.502788l2.792728 0.434425 124.741818 8.998787a15.515152 15.515152 0 0 0 4.964848-30.502787l-2.730666-0.434425-124.741818-8.998788z" fill="#333333" p-id="5563"></path><path d="M178.858667 726.574545a15.515152 15.515152 0 0 1 8.129939 29.789091l-2.699636 0.744728-123.128243 22.000484a15.515152 15.515152 0 0 1-8.160969-29.78909l2.699636-0.775758 123.159273-21.969455z" fill="#333333" p-id="5564"></path><path d="M369.570909 716.458667a31.030303 31.030303 0 1 0-3.258182-61.967515 31.030303 31.030303 0 0 0 3.258182 61.967515z" fill="#333333" p-id="5565"></path><path d="M294.912 829.129697a62.060606 62.060606 0 1 0-6.516364-123.966061 62.060606 62.060606 0 0 0 6.516364 123.966061zM914.649212 796.64097a62.060606 62.060606 0 1 0-6.516364-123.966061 62.060606 62.060606 0 0 0 6.516364 123.966061z" fill="#F6B2B1" p-id="5566"></path><path d="M598.264242 688.934788c17.128727-0.930909 26.344727-8.347152 25.910303-16.911515-0.465455-8.533333-10.395152-14.987636-27.523878-14.087758-17.097697 0.930909-25.103515 8.285091-24.638061 16.849455 0.434424 8.533333 9.153939 15.049697 26.282667 14.149818z" fill="#333333" p-id="5567"></path><path d="M614.275879 696.723394a62.060606 62.060606 0 0 1-123.500606 11.108848l-0.434425-4.623515-1.024-19.300848a15.515152 15.515152 0 0 1 30.595879-4.406303l0.403394 2.792727 0.99297 19.300849a31.030303 31.030303 0 0 0 61.967515 0.372363v-3.630545l-0.99297-19.300849a15.515152 15.515152 0 0 1 30.595879-4.406303l0.403394 2.792727 0.99297 19.300849z" fill="#333333" p-id="5568"></path><path d="M707.242667 691.851636a62.060606 62.060606 0 0 1-123.531637 11.108849l-0.403394-4.623515-1.024-19.300849a15.515152 15.515152 0 0 1 30.595879-4.406303l0.403394 2.792727 0.99297 19.300849a31.030303 31.030303 0 0 0 61.967515 0.372364v-3.630546l-0.99297-19.300848a15.515152 15.515152 0 0 1 30.595879-4.406303l0.403394 2.792727 0.99297 19.300848z" fill="#333333" p-id="5569"></path><path d="M334.134303 183.078788c-10.395152 4.096-15.856485 23.893333-20.883394 50.889697-5.026909 27.058424-8.843636 54.147879 0.620606 57.871515 9.495273 3.692606 74.78303-31.433697 76.76897-47.166061 1.985939-15.701333-46.142061-65.722182-56.506182-61.595151zM810.294303 158.130424c10.767515 2.978909 18.276848 22.093576 26.065455 48.438303 7.850667 26.375758 14.460121 52.937697 5.430303 57.592243-9.060848 4.654545-77.637818-23.458909-81.237334-38.88097-3.630545-15.422061 39.005091-70.159515 49.741576-67.149576z" fill="#F6B2B1" p-id="5570"></path><path d="M113.136485 196.421818a15.515152 15.515152 0 0 1 19.797333-1.799757l2.172121 1.768727 46.545455 46.545454a15.515152 15.515152 0 0 1-19.797333 23.738182l-2.172122-1.768727-46.545454-46.545455a15.515152 15.515152 0 0 1 0-21.969454zM63.705212 247.001212a15.515152 15.515152 0 0 1 18.214788-7.974788l2.606545 1.024 62.060607 31.030303a15.515152 15.515152 0 0 1-11.295031 28.765091l-2.606545-1.024-62.060606-31.030303a15.515152 15.515152 0 0 1-6.919758-20.790303zM49.586424 300.776727l77.575758 15.515152a15.515152 15.515152 0 0 1-3.289212 30.72l-2.792728-0.310303-77.575757-15.515152a15.515152 15.515152 0 0 1 3.289212-30.72l2.792727 0.310303z" fill="#FFC41D" p-id="5571"></path></svg>