<?xml version="1.0" standalone="no"?><!DOCTYPE svg PUBLIC "-//W3C//DTD SVG 1.1//EN" "http://www.w3.org/Graphics/SVG/1.1/DTD/svg11.dtd"><svg t="1609414100199" class="icon" viewBox="0 0 1024 1024" version="1.1" xmlns="http://www.w3.org/2000/svg" p-id="2910" xmlns:xlink="http://www.w3.org/1999/xlink" width="200" height="200"><defs><style type="text/css"></style></defs><path d="M430.08 291.84c166.8352 0 302.08 135.2448 302.08 302.08s-135.2448 302.08-302.08 302.08-302.08-135.2448-302.08-302.08 135.2448-302.08 302.08-302.08z m0 112.64c-104.6272 0-189.44 84.8128-189.44 189.44s84.8128 189.44 189.44 189.44 189.44-84.8128 189.44-189.44-84.8128-189.44-189.44-189.44z" fill="#FF4E4E" p-id="2911"></path><path d="M538.19392 128h114.35008l78.94016 447.48288-110.92992 19.5584z" fill="#FF4E4E" p-id="2912"></path><path d="M596.224 225.54624l56.32-97.54624 239.44192 138.24-56.32 97.54624z" fill="#FF4E4E" p-id="2913"></path><path d="M573.45536 327.96672c69.51936 37.5552 122.63936 101.57056 145.8688 178.54976l12.16 68.9664-110.92992 19.5584-1.10592-6.2976a188.9792 188.9792 0 0 0-9.71776-55.09632l-36.2752-205.68064zM652.544 128l25.5488 144.80896-127.31904-73.50784L538.19392 128h114.34496z" fill="#FF1F1F" p-id="2914"></path></svg>